<?xml version="1.0" encoding="utf-8"?>
<!-- Generator: Adobe Illustrator 16.0.4, SVG Export Plug-In . SVG Version: 6.00 Build 0)  -->
<!DOCTYPE svg PUBLIC "-//W3C//DTD SVG 1.1//EN" "http://www.w3.org/Graphics/SVG/1.1/DTD/svg11.dtd">
<svg version="1.1" id="圖層_2" xmlns="http://www.w3.org/2000/svg" xmlns:xlink="http://www.w3.org/1999/xlink" x="0px" y="0px"
	 width="518.267px" height="431.195px" viewBox="0 0 518.267 431.195" enable-background="new 0 0 518.267 431.195"
	 xml:space="preserve">
<g>
	<path fill="#FFFFFF" d="M427.845,253.74c-10.782,0-21.119,1.938-30.687,5.477l-25.791-46.937v-31.887h16.453
		c10.692,0,19.391-8.699,19.391-19.391s-8.698-19.392-19.391-19.392h-53.472c-10.692,0-19.391,8.7-19.391,19.392
		s8.699,19.391,19.391,19.391h28.792v28.83H159.425l28.836-59.385h39.732c2.272,0,4.113-1.842,4.113-4.114
		c0-2.271-1.841-4.113-4.113-4.113h-42.307c-0.087,0-0.169,0.021-0.255,0.025c-0.151,0.011-0.301,0.02-0.45,0.046
		c-0.131,0.022-0.256,0.059-0.383,0.094c-0.126,0.035-0.252,0.069-0.375,0.116c-0.128,0.05-0.25,0.108-0.372,0.17
		c-0.116,0.058-0.229,0.116-0.34,0.184c-0.112,0.07-0.216,0.149-0.32,0.23c-0.107,0.081-0.211,0.164-0.31,0.256
		c-0.097,0.092-0.184,0.188-0.271,0.289c-0.086,0.098-0.173,0.196-0.251,0.305c-0.086,0.119-0.159,0.249-0.233,0.378
		c-0.043,0.077-0.099,0.144-0.138,0.224l-57.082,117.554c-11.057-4.959-23.294-7.741-36.176-7.741
		C39.803,253.74,0,293.543,0,342.468c0,48.926,39.803,88.728,88.728,88.728c48.925,0,88.728-39.802,88.728-88.728
		c0-33.116-18.25-62.034-45.208-77.276l10.152-20.905l104.461,72.936c-6.437,6.485-10.421,15.409-10.421,25.246
		c0,7.813,2.52,15.046,6.778,20.943l-11.409,28.766c-0.275,0.694-0.331,1.415-0.23,2.104h-14.162c-2.271,0-4.113,1.842-4.113,4.112
		c0,2.272,1.842,4.114,4.113,4.114h36.119c2.272,0,4.113-1.842,4.113-4.114c0-2.271-1.841-4.112-4.113-4.112h-13.712l9.604-24.216
		c6.212,5.158,14.185,8.264,22.871,8.264c15.103,0,28.046-9.391,33.32-22.637h34.488c6.404,42.674,43.306,75.504,87.738,75.504
		c48.924,0,88.728-39.802,88.728-88.728C516.573,293.543,476.77,253.74,427.845,253.74z M323.185,161.003
		c0-6.156,5.008-11.164,11.165-11.164h53.472c6.156,0,11.165,5.008,11.165,11.164c0,6.155-5.009,11.165-11.165,11.165h-53.472
		C328.193,172.168,323.185,167.158,323.185,161.003z M169.229,342.468c0,44.39-36.113,80.502-80.502,80.502
		c-44.388,0-80.501-36.112-80.501-80.502s36.113-80.501,80.501-80.501c11.594,0,22.614,2.483,32.583,6.914l-25.072,51.633
		c-2.139-0.661-4.41-1.019-6.764-1.019c-12.667,0-22.974,10.306-22.974,22.973c0,12.669,10.306,22.976,22.974,22.976
		s22.974-10.307,22.974-22.976c0-7.373-3.505-13.928-8.92-18.134l25.118-51.729C152.866,286.499,169.229,312.601,169.229,342.468z
		 M104.222,342.468c0,8.133-6.615,14.748-14.747,14.748c-8.131,0-14.747-6.615-14.747-14.748c0-8.132,6.615-14.747,14.747-14.747
		C97.607,327.721,104.222,334.336,104.222,342.468z M155.43,217.449h169.04l-44.243,90.054c-2.553-0.579-5.204-0.895-7.929-0.895
		c-6.851,0-13.256,1.934-18.707,5.279l-107.555-75.095L155.43,217.449z M272.299,370.102c-15.237,0-27.633-12.396-27.633-27.634
		c0-15.236,12.396-27.633,27.633-27.633c15.236,0,27.631,12.396,27.631,27.633C299.93,357.705,287.535,370.102,272.299,370.102z
		 M307.801,347.465c0.229-1.635,0.355-3.301,0.355-4.997c0-14.128-8.215-26.371-20.118-32.212l45.301-92.205
		c0.096-0.197,0.16-0.4,0.224-0.602h31.258l24.723,44.993c-29.803,14.322-50.427,44.81-50.427,80.025
		c0,1.678,0.057,3.342,0.149,4.997H307.801z M427.838,327.721c0.004,0,0.007,0.001,0.012,0.001c0.002,0,0.005-0.001,0.008-0.001
		c8.125,0.007,14.735,6.619,14.735,14.747c0,8.133-6.616,14.748-14.747,14.748c-8.132,0-14.748-6.615-14.748-14.748
		C413.099,334.338,419.71,327.726,427.838,327.721z M404.872,342.468c0,1.718,0.205,3.386,0.564,4.997h-57.921
		c-0.102-1.655-0.17-3.316-0.17-4.997c0-32.115,18.909-59.888,46.172-72.796l27.89,50.758
		C411.866,323.224,404.872,332.037,404.872,342.468z M427.845,422.97c-39.884,0-73.068-29.161-79.397-67.278h60.537
		c0.033,0,0.064-0.009,0.097-0.009c4.163,5.895,11.015,9.761,18.764,9.761c12.667,0,22.973-10.307,22.973-22.976
		c0-11.818-8.972-21.572-20.461-22.829l-29.183-53.111c8.353-2.941,17.324-4.561,26.67-4.561c44.389,0,80.501,36.111,80.501,80.501
		S472.234,422.97,427.845,422.97z"/>
	<path fill="#FFFFFF" d="M7.75,82.34h25.542c0.958,10.304,5.135,19.683,11.511,27.131l-18.255,18.256
		c-1.606,1.604-1.606,4.211,0,5.816c0.804,0.803,1.856,1.205,2.909,1.205c1.052,0,2.105-0.402,2.908-1.205l18.286-18.286
		c7.477,6.239,16.842,10.276,27.099,11.138v25.944c0,2.271,1.841,4.113,4.113,4.113s4.114-1.843,4.114-4.113v-25.944
		c10.257-0.861,19.622-4.898,27.098-11.138l18.285,18.284c0.803,0.803,1.856,1.206,2.908,1.206c1.053,0,2.105-0.403,2.909-1.206
		c1.606-1.605,1.606-4.211,0-5.815l-18.253-18.254c6.376-7.448,10.553-16.827,11.511-27.132h25.542c2.271,0,4.113-1.842,4.113-4.113
		s-1.841-4.113-4.113-4.113H130.5c-0.781-10.428-4.843-19.953-11.17-27.535l17.845-17.848c1.606-1.606,1.606-4.211-0.001-5.816
		c-1.605-1.607-4.21-1.607-5.817,0l-17.813,17.815c-7.553-6.466-17.093-10.665-27.568-11.545V4.113C85.976,1.842,84.134,0,81.862,0
		s-4.113,1.842-4.113,4.113v25.071c-10.476,0.88-20.016,5.079-27.569,11.546L32.363,22.914c-1.605-1.607-4.21-1.607-5.817,0
		c-1.606,1.606-1.606,4.211,0,5.816l17.849,17.848c-6.327,7.582-10.39,17.107-11.171,27.535H7.75c-2.272,0-4.113,1.842-4.113,4.113
		S5.478,82.34,7.75,82.34z M81.862,37.226c22.368,0,40.565,18.196,40.565,40.563c0,22.368-18.197,40.565-40.565,40.565
		c-22.367,0-40.564-18.197-40.564-40.565C41.298,55.422,59.495,37.226,81.862,37.226z"/>
</g>
</svg>
