<?xml version="1.0" encoding="utf-8"?>
<!-- Generator: Adobe Illustrator 16.0.4, SVG Export Plug-In . SVG Version: 6.00 Build 0)  -->
<!DOCTYPE svg PUBLIC "-//W3C//DTD SVG 1.1//EN" "http://www.w3.org/Graphics/SVG/1.1/DTD/svg11.dtd">
<svg version="1.1" id="圖層_1" xmlns="http://www.w3.org/2000/svg" xmlns:xlink="http://www.w3.org/1999/xlink" x="0px" y="0px"
	 width="155.247px" height="152.996px" viewBox="0 0 155.247 152.996" enable-background="new 0 0 155.247 152.996"
	 xml:space="preserve">
<g>
	<g>
		<path fill="#FFFFFF" d="M6.858,152.996V90.004h19.197c0.197-1,0.497-2.4,0.9-4.201c0.398-2.197,0.699-3.697,0.9-4.498l12.299,0.6
			c-0.403,1.004-0.9,2.602-1.5,4.799c-0.403,1.402-0.703,2.504-0.9,3.301h29.097v62.992H56.352v-4.5H17.356v4.5H6.858z
			 M17.356,98.701v8.398h38.995v-8.398H17.356z M17.356,115.199v8.4h38.995v-8.4H17.356z M17.356,131.697v8.4h38.995v-8.4H17.356z"
			/>
		<path fill="#FFFFFF" d="M83.887,99.002v-9.299h19.798c1.199-2.797,2.197-5.699,3-8.699l11.098,0.9c-0.6,1.402-1.4,3.299-2.4,5.699
			c-0.201,1.002-0.402,1.701-0.6,2.1h38.695v9.299h-42.895c-2.398,5.398-5.398,10.301-8.998,14.699v38.992h-9.899v-27.895
			c-1.8,2.4-4.2,4.701-7.199,6.898c-0.403-1.598-1.401-4.299-2.999-8.098c-0.403-0.998-0.703-1.697-0.9-2.1
			c7.996-7.199,14.196-14.699,18.598-22.498H83.887z M106.686,124.199v-9h16.498v-12.898h10.498v12.898h16.498v9h-16.498v16.498
			h19.797v8.699h-49.793v-8.699h19.498v-16.498H106.686z"/>
	</g>
	<g>
		<g>
			<path fill="#FFFFFF" d="M16.985,64.428c5.697-3.864,10.992-8.855,15.878-14.961l0.916,1.221
				c-3.463,4.686-8.755,9.672-15.878,14.963L16.985,64.428z M20.038,12.213h52.521v1.527H20.038V12.213z M26.451,24.123h39.084
				v19.236H47.519V62.9c0.407,5.087-2.137,7.43-7.632,7.025h-7.023v-1.527h7.023c4.475,0.406,6.512-1.426,6.106-5.498V43.359H26.451
				V24.123z M64.008,25.649H27.977v16.183h36.031V25.649z M42.939,0.609L44.466,0l4.58,10.993l-1.527,0.608L42.939,0.609z
				 M57.902,51.604l0.916-1.221c0.811,0.816,2.542,2.443,5.19,4.885c4.681,4.479,7.733,7.229,9.16,8.245l-0.916,0.915
				c-1.426-1.021-4.785-3.968-10.076-8.855C60.14,53.541,58.713,52.215,57.902,51.604z"/>
			<path fill="#FFFFFF" d="M85.932,5.191h67.482v1.525h-34.199c-0.203,0.611-0.715,1.832-1.525,3.664
				c-0.816,1.832-1.428,3.159-1.832,3.971h31.146v27.785h-38.781c-0.816,1.021-2.342,2.648-4.58,4.887
				c-0.814,0.816-1.428,1.426-1.832,1.832h43.361v1.527c-6.109,5.09-13.236,9.16-21.377,12.213
				c8.141,2.033,18.629,3.971,31.451,5.803l-0.305,1.527c-13.641-2.038-24.838-4.275-33.588-6.72
				c-7.535,2.239-20.055,4.886-37.558,7.94l-0.305-1.527c14.855-2.442,26.664-4.785,35.419-7.023
				c-8.756-3.053-15.572-6.717-20.458-10.992c-4.074,3.465-8.754,6.618-14.045,9.465l-0.611-1.22
				c9.16-5.087,16.689-10.993,22.595-17.712H94.483V14.352h19.542c0.609-0.812,1.422-2.338,2.441-4.58
				c0.611-1.423,1.016-2.443,1.223-3.055H85.932V5.191z M145.475,15.877H95.704v7.328h49.771V15.877z M95.704,24.732v7.023h49.771
				v-7.023H95.704z M95.704,40.61h49.771v-7.327H95.704V40.61z M99.674,50.688c5.291,4.48,12.517,8.244,21.679,11.299
				c8.955-3.254,16.078-7.123,21.373-11.604h-42.443C100.08,50.383,99.874,50.487,99.674,50.688z"/>
		</g>
		<g>
			<polygon fill="#FFFFFF" points="0,22.94 1.222,22.023 13.13,32.101 12.214,33.018 			"/>
			<polygon fill="#FFFFFF" points="2.748,69.964 10.688,42.787 12.214,43.092 4.275,70.27 			"/>
			<polygon fill="#FFFFFF" points="3.664,4.312 4.58,3.397 16.184,13.168 15.268,14.39 			"/>
		</g>
	</g>
</g>
</svg>
