<?xml version="1.0" encoding="utf-8"?>
<!-- Generator: Adobe Illustrator 16.0.4, SVG Export Plug-In . SVG Version: 6.00 Build 0)  -->
<!DOCTYPE svg PUBLIC "-//W3C//DTD SVG 1.1//EN" "http://www.w3.org/Graphics/SVG/1.1/DTD/svg11.dtd">
<svg version="1.1" id="圖層_1" xmlns="http://www.w3.org/2000/svg" xmlns:xlink="http://www.w3.org/1999/xlink" x="0px" y="0px"
	 width="156.955px" height="155.209px" viewBox="0 0 156.955 155.209" enable-background="new 0 0 156.955 155.209"
	 xml:space="preserve">
<g>
	<g>
		<path fill="#FFFFFF" d="M8.847,48.039h55.525v18.404h8.734v1.559H0.112v-1.559h8.734V48.039z M32.554,42.111
			c6.443-3.119,11.956-6.443,16.533-9.981c-3.329-4.991-5.722-11.435-7.175-19.341h-30.57v9.358h21.835l-0.624,9.671
			c0,4.785-3.329,7.072-9.982,6.861l-6.863-0.311v-1.561l6.863,0.312c6.029,0.209,8.939-1.561,8.734-5.303l0.312-8.111H11.342
			c0.414,8.32-2.705,15.184-9.358,20.588l-0.936-0.936c6.239-5.195,9.148-11.746,8.734-19.652V11.23H41.6
			c-0.624-4.782-1.145-8.423-1.56-10.918L41.6,0c0.205,1.457,0.517,3.953,0.936,7.486c0.414,1.872,0.624,3.119,0.624,3.744h29.01
			v1.559H43.472c1.452,7.486,3.743,13.623,6.862,18.404c4.572-3.533,9.046-8.314,13.414-14.349l1.248,0.936
			c-3.953,5.615-8.529,10.504-13.725,14.661c1.248,1.872,2.7,3.539,4.367,4.991c2.286,2.081,4.884,3.12,7.798,3.12
			c2.7,0.209,4.572-1.141,5.615-4.056c1.248-3.534,1.974-6.239,2.184-8.11h1.248c-0.624,3.538-1.355,6.346-2.184,8.422
			c-1.248,3.539-3.539,5.303-6.863,5.303c-3.329,0-6.239-1.141-8.734-3.432c-1.872-1.661-3.431-3.431-4.679-5.303
			c-4.577,3.539-10.191,6.863-16.845,9.982L32.554,42.111z M10.406,49.598v16.846h16.845V49.598H10.406z M28.811,49.598v16.846
			H44.72V49.598H28.811z M62.812,49.598H46.279v16.846h16.533V49.598z M52.83,2.808l0.936-1.248l9.67,6.862L62.5,9.67L52.83,2.808z"
			/>
		<path fill="#FFFFFF" d="M86.146,5.303h68.938v1.561h-34.937c-0.21,0.623-0.731,1.871-1.56,3.742
			c-0.834,1.872-1.457,3.227-1.871,4.056h31.816v28.386h-39.615c-0.834,1.044-2.394,2.705-4.68,4.992
			c-0.833,0.833-1.457,1.457-1.871,1.871h44.295v1.56c-6.238,5.2-13.521,9.358-21.836,12.478c8.315,2.076,19.029,4.055,32.13,5.927
			l-0.312,1.56c-13.936-2.081-25.375-4.367-34.313-6.862c-7.696,2.286-20.485,4.991-38.368,8.11l-0.312-1.56
			c15.178-2.495,27.241-4.889,36.186-7.175c-8.944-3.119-15.909-6.862-20.9-11.229c-4.162,3.538-8.943,6.761-14.35,9.67
			l-0.623-1.247c9.357-5.196,17.049-11.23,23.083-18.094H94.88V14.661h19.964c0.624-0.829,1.452-2.388,2.495-4.679
			c0.624-1.453,1.038-2.496,1.248-3.119H86.146V5.303z M146.974,16.221H96.127v7.486h50.847V16.221z M96.127,25.268v7.174h50.847
			v-7.174H96.127z M96.127,41.488h50.847v-7.486H96.127V41.488z M100.183,51.781c5.405,4.577,12.789,8.423,22.147,11.543
			c9.148-3.324,16.425-7.277,21.835-11.854h-43.359C100.597,51.47,100.388,51.577,100.183,51.781z"/>
	</g>
	<g>
		<path fill="#FFFFFF" d="M12.753,121.201C9.916,118.369,5.665,114.725,0,110.27l6.681-7.287c0.806,0.607,2.125,1.623,3.947,3.037
			c4.25,3.24,7.288,5.669,9.109,7.287L12.753,121.201z M12.449,155.209l-10.02-3.339c3.037-8.095,5.869-17.104,8.502-27.024
			c0.403,0.203,0.912,0.408,1.518,0.605c1.618,0.609,3.744,1.214,6.377,1.824c0.199-0.61,0.403-1.416,0.607-2.43
			c1.215-4.252,2.628-9.916,4.25-17.006l8.2,2.127c-1.016,4.659-2.634,11.44-4.859,20.345c-0.607,2.229-1.016,3.846-1.215,4.858
			l-6.68-2.125c-0.812,3.035-2.23,7.59-4.251,13.663C13.664,150.552,12.853,153.388,12.449,155.209z M17.005,102.072
			c-4.053-4.047-8.403-7.895-13.058-11.539l6.681-6.984c6.476,4.859,11.031,8.502,13.664,10.932L17.005,102.072z M44.333,153.388
			c-7.492,0.199-11.135-3.341-10.931-10.627V100.25h10.02v39.776c-0.204,3.242,1.215,4.758,4.25,4.555h3.341
			c2.628,0.203,4.146-1.109,4.555-3.946c0.199-1.412,0.503-5.263,0.911-11.539c2.628,1.216,5.869,2.532,9.717,3.949
			c-0.205,0.811-0.408,2.024-0.607,3.643c-0.408,3.643-0.812,6.482-1.215,8.501c-1.215,5.665-5.366,8.398-12.45,8.199H44.333z
			 M51.317,103.59c-0.607-0.607-1.519-1.518-2.733-2.732c-4.66-4.858-8.606-8.603-11.843-11.235l6.681-6.68
			c1.618,1.418,4.146,3.644,7.591,6.68c3.439,3.036,5.968,5.267,7.591,6.681L51.317,103.59z M65.588,130.615
			c-2.633-7.488-5.162-14.879-7.591-22.166l9.11-3.037c2.832,6.884,5.465,14.172,7.894,21.863L65.588,130.615z"/>
		<path fill="#FFFFFF" d="M96.187,118.335c-2.955-2.721-9.096-6.296-13.992-8.395l4.664-6.996
			c4.741,1.865,11.037,5.052,14.147,7.694L96.187,118.335z M105.437,128.128c-3.887,8.006-8.629,16.869-13.06,24.409l-7.54-6.218
			c4.042-5.832,9.639-15.469,14.07-24.486L105.437,128.128z M100.461,97.191c-2.876-2.798-8.938-6.451-13.759-8.628l4.742-6.841
			c4.897,1.865,11.115,5.131,14.148,7.929L100.461,97.191z M120.517,130.616c-3.42,6.375-8.473,13.76-12.593,18.423
			c-1.788-1.321-5.286-3.808-7.463-4.976c4.12-4.119,8.474-10.338,11.271-15.936L120.517,130.616z M155.187,97.191h-49.129v-8.084
			h19.046c-0.855-2.099-1.866-4.354-2.722-6.219l9.406-2.254c1.398,2.564,3.109,5.83,4.197,8.473h19.201V97.191z M135.441,125.563
			v18.269c0,4.196-0.933,6.374-4.353,7.695c-3.343,1.166-7.852,1.244-13.915,1.244c-0.388-2.411-1.942-5.832-3.265-8.086
			c3.965,0.08,8.629,0.08,9.872,0.08c1.244,0,1.711-0.234,1.711-1.167v-18.035h-16.479v-23.785h41.432v23.785H135.441z
			 M118.106,117.48h22.776v-7.54h-22.776V117.48z M146.79,128.44c3.421,5.441,7.229,12.436,9.018,16.945l-8.628,3.265
			c-1.556-4.742-5.442-12.048-8.629-17.49L146.79,128.44z"/>
	</g>
</g>
</svg>
