<?xml version="1.0" encoding="utf-8"?>
<!-- Generator: Adobe Illustrator 16.0.4, SVG Export Plug-In . SVG Version: 6.00 Build 0)  -->
<!DOCTYPE svg PUBLIC "-//W3C//DTD SVG 1.1//EN" "http://www.w3.org/Graphics/SVG/1.1/DTD/svg11.dtd">
<svg version="1.1" id="圖層_2" xmlns="http://www.w3.org/2000/svg" xmlns:xlink="http://www.w3.org/1999/xlink" x="0px" y="0px"
	 width="401.524px" height="390.718px" viewBox="0 109.489 401.524 390.718" enable-background="new 0 109.489 401.524 390.718"
	 xml:space="preserve">
<g>
	<path fill="#FFFFFF" d="M351.227,242.46c0.024-0.055,0.049-0.11,0.071-0.168c0.074-0.19,0.14-0.386,0.182-0.586
		c0.001-0.015,0.003-0.027,0.007-0.042c0.042-0.21,0.059-0.422,0.064-0.635c0-0.027,0.007-0.055,0.007-0.081
		c0-0.022-0.007-0.043-0.007-0.065c-0.003-0.216-0.022-0.431-0.064-0.645c-0.007-0.039-0.02-0.076-0.028-0.115
		c-0.04-0.174-0.094-0.345-0.158-0.513c-0.021-0.052-0.039-0.1-0.061-0.15c-0.013-0.028-0.021-0.059-0.035-0.088l-38.057-80.414
		c-0.609-1.287-1.906-2.109-3.33-2.109H40.335c-1.448,0-2.763,0.851-3.357,2.171L0.76,239.435c-0.006,0.015-0.011,0.029-0.016,0.042
		c-0.019,0.042-0.032,0.086-0.049,0.13c-0.065,0.165-0.117,0.333-0.157,0.506c-0.011,0.048-0.024,0.096-0.034,0.144
		c-0.04,0.212-0.06,0.424-0.064,0.637c0,0.019-0.005,0.036-0.005,0.055c0,0.026,0.007,0.055,0.008,0.082
		c0.005,0.205,0.023,0.407,0.061,0.607c0.005,0.022,0.006,0.046,0.011,0.068c0.042,0.204,0.108,0.402,0.186,0.597
		c0.02,0.052,0.042,0.104,0.065,0.155c0.084,0.185,0.177,0.368,0.293,0.54c0.002,0.003,0.004,0.008,0.007,0.012l18.939,28.092
		c0.001,0.001,0.002,0.003,0.003,0.003l81.522,120.914c0.002,0.003,0.004,0.005,0.006,0.008l71.284,105.729
		c0.685,1.016,1.829,1.624,3.052,1.624h0.001c1.224,0,2.368-0.606,3.052-1.623l171.997-254.741c0.008-0.013,0.015-0.025,0.023-0.038
		C351.057,242.812,351.149,242.638,351.227,242.46z M144.766,423.868l12.878,38.2l-25.75-38.194h12.797
		C144.716,423.875,144.74,423.869,144.766,423.868z M127.503,416.508c-0.185,0-0.362,0.028-0.54,0.056l-15.452-22.918h21.976
		c0.362,0,0.704-0.067,1.034-0.166l7.763,23.028H127.503z M106.546,386.281l-15.416-22.863h31.461c0.599,0,1.157-0.157,1.656-0.409
		l7.846,23.273L106.546,386.281L106.546,386.281z M86.988,356.049c-0.264,0-0.521,0.031-0.769,0.084l-15.471-22.947h43.448
		l7.707,22.863H86.988z M65.783,325.819l-15.415-22.861h53.638l7.708,22.861H65.783z M45.401,295.591l-15.415-22.865h63.829
		l7.707,22.865H45.401z M25.019,265.36l-13.976-20.729h73.299l6.987,20.729H25.019z M175.874,165.499l79.325,71.767H96.548
		L175.874,165.499z M87.892,235.165l-41.161-70.95h119.583L87.892,235.165z M185.436,164.215h119.583l-41.162,70.95L185.436,164.215
		z M267.394,244.631h73.549L192.142,465.022L267.394,244.631z M342.06,237.265h-70.904l39.048-67.31L342.06,237.265z
		 M40.749,168.584l39.844,68.682H9.816L40.749,168.584z M173.19,485.128L92.117,244.631h167.492l-83.216,243.716l-0.517,0.765
		L173.19,485.128z"/>
	<path fill="#FFFFFF" d="M324.314,127.616l12.875,5.266l-5.627,13.759c-0.857,2.096,0.148,4.49,2.244,5.347
		c0.509,0.208,1.034,0.306,1.551,0.306c1.615,0,3.147-0.962,3.797-2.548l5.626-13.761l11.653,4.768
		c0.509,0.207,1.034,0.306,1.551,0.306c1.615,0,3.147-0.96,3.797-2.55c0.857-2.097-0.146-4.49-2.242-5.347l-11.655-4.765
		l4.405-10.771c0.857-2.098-0.146-4.491-2.242-5.348c-2.094-0.857-4.49,0.148-5.348,2.243l-4.406,10.771l-12.875-5.264
		c-2.097-0.859-4.492,0.146-5.348,2.241C321.213,124.365,322.218,126.759,324.314,127.616z"/>
	<path fill="#FFFFFF" d="M399.078,188.009l-17.138-8.524l8.237-16.722c0.999-2.031,0.164-4.49-1.867-5.489
		c-2.028-1.002-4.489-0.166-5.49,1.865l-8.224,16.694l-17.11-8.509c-2.028-1.012-4.489-0.185-5.497,1.845
		c-1.009,2.027-0.182,4.489,1.845,5.497l17.141,8.525l-8.238,16.723c-1.001,2.033-0.164,4.491,1.867,5.491
		c0.582,0.287,1.2,0.423,1.808,0.423c1.515,0,2.968-0.842,3.682-2.29l8.224-16.696l17.109,8.51c0.586,0.291,1.21,0.431,1.824,0.431
		c1.506,0,2.957-0.835,3.675-2.275C401.932,191.478,401.105,189.018,399.078,188.009z"/>
</g>
</svg>
