<?xml version="1.0" encoding="utf-8"?>
<!-- Generator: Adobe Illustrator 16.0.4, SVG Export Plug-In . SVG Version: 6.00 Build 0)  -->
<!DOCTYPE svg PUBLIC "-//W3C//DTD SVG 1.1//EN" "http://www.w3.org/Graphics/SVG/1.1/DTD/svg11.dtd">
<svg version="1.1" id="圖層_1" xmlns="http://www.w3.org/2000/svg" xmlns:xlink="http://www.w3.org/1999/xlink" x="0px" y="0px"
	 width="158.624px" height="147.831px" viewBox="0 0 158.624 147.831" enable-background="new 0 0 158.624 147.831"
	 xml:space="preserve">
<g>
	<g>
		<path fill="#FFFFFF" d="M4.421,0h67.373v1.523H37.65c-0.205,0.61-0.714,1.83-1.524,3.658c-0.814,1.829-1.424,3.154-1.829,3.963
			h31.095v27.743H26.676c-0.815,1.021-2.338,2.643-4.572,4.877c-0.815,0.814-1.425,1.424-1.83,1.83h43.29v1.523
			c-6.097,5.083-13.213,9.146-21.34,12.192c8.126,2.029,18.596,3.966,31.399,5.794l-0.305,1.524
			c-13.617-2.034-24.797-4.269-33.534-6.707c-7.521,2.234-20.02,4.878-37.497,7.927l-0.304-1.524
			c14.833-2.438,26.623-4.777,35.363-7.014c-8.74-3.047-15.548-6.704-20.425-10.972c-4.068,3.457-8.741,6.605-14.023,9.449
			l-0.611-1.219c9.146-5.078,16.663-10.975,22.56-17.682H12.957V9.145h19.511c0.61-0.809,1.419-2.334,2.438-4.57
			c0.61-1.422,1.015-2.44,1.22-3.051H4.421V0z M63.868,10.669H14.176v7.317h49.692V10.669z M14.176,19.51v7.012h49.692V19.51H14.176
			z M14.176,35.363h49.692v-7.318H14.176V35.363z M18.14,45.423c5.282,4.473,12.498,8.231,21.644,11.28
			c8.941-3.25,16.053-7.111,21.34-11.585H18.75C18.544,45.118,18.34,45.223,18.14,45.423z"/>
		<path fill="#FFFFFF" d="M94.292,2.134h51.216v62.8h-1.523v-7.316H95.816v7.621h-1.524V2.134z M95.816,3.658v24.998h48.168V3.658
			H95.816z M95.816,30.18v25.914h48.168V30.18H95.816z"/>
	</g>
	<g>
		<path fill="#FFFFFF" d="M2.731,90.17v-8.801h25.796c1.214-2.428,2.223-4.956,3.035-7.588l10.622,0.303
			c-0.607,2.428-1.418,4.857-2.428,7.285h31.562v8.801H50.681c4.651,5.666,12.338,9.611,23.064,11.836
			c-0.407,1.014-1.015,2.531-1.82,4.551c-1.015,2.229-1.721,3.847-2.125,4.855c-4.249-1.617-7.89-3.133-10.924-4.551v6.068H42.184
			v6.98h-9.711v-6.98H15.174v-5.159c-1.417,0.606-3.642,1.722-6.676,3.339c-1.622,0.811-2.835,1.418-3.642,1.82
			C3.642,110.1,2.02,107.065,0,103.826c10.722-4.045,18.408-8.598,23.064-13.656H2.731z M0.606,132.049v-9.104h14.567l0.303-6.677
			h10.015v6.677h23.976v-6.677h10.015v6.677h13.96v9.104h-13.96v13.961H49.467v-13.961H24.582
			c-0.811,5.866-4.353,11.124-10.622,15.782c-1.214-0.607-3.238-1.519-6.069-2.732c-2.025-0.812-3.443-1.418-4.249-1.82
			c6.472-3.442,10.015-7.179,10.621-11.229H0.606z M35.204,90.17c-4.249,5.87-9.408,10.725-15.478,14.565h12.747v-8.193h9.711v8.193
			h12.443c-5.463-3.233-10.319-8.089-14.568-14.565H35.204z"/>
		<path fill="#FFFFFF" d="M152.555,146.312c-6.881-4.856-11.736-8.697-14.566-11.531c-3.644,3.437-9.006,7.587-16.085,12.442
			c-0.607-1.214-1.821-3.035-3.642-5.462c-0.811-1.214-1.418-2.126-1.82-2.732c-1.016,3.235-3.747,4.955-8.195,5.159
			c-1.621,0.197-4.552,0.304-8.801,0.304c-0.203-1.015-0.607-3.036-1.214-6.07c-0.204-1.214-0.407-2.124-0.606-2.731
			c1.617,0.204,3.643,0.304,6.069,0.304c3.035,0.205,4.448-1.313,4.249-4.553c0.606-6.268,0.91-12.642,0.91-19.118h-7.891
			c-0.204,14.567-3.442,26.099-9.711,34.596c-3.443-3.441-5.767-5.97-6.98-7.585c5.055-7.081,7.588-17.802,7.588-32.17l0.303-12.746
			h-6.677v-9.105h14.263c-0.203-1.617-0.81-4.044-1.82-7.282c-0.407-1.413-0.711-2.429-0.91-3.036l10.622-1.213
			c1.214,4.049,2.124,7.891,2.731,11.531h10.318v9.105H101.57c0,3.238,0,6.174,0,8.801h15.78c5.462-8.498,9.508-18.309,12.14-29.438
			l10.318,1.213c-1.015,3.442-2.124,6.982-3.338,10.623h21.547v9.406h-4.553c-1.418,13.763-4.552,24.385-9.408,31.867
			c4.045,4.049,8.9,7.487,14.567,10.317C156.396,140.039,154.375,143.074,152.555,146.312z M122.207,113.232
			c-0.204-0.401-0.607-1.009-1.215-1.82c-0.408-0.607-1.417-2.123-3.034-4.551c0,8.701-0.204,17.903-0.607,27.614
			c0,0.409-0.104,1.016-0.304,1.822c0,0.606,0,1.015,0,1.214c6.677-3.84,11.633-7.482,14.871-10.926
			c-3.035-5.054-5.264-11.023-6.677-17.904L122.207,113.232z M137.988,118.089c3.232-5.055,5.258-12.747,6.068-23.065h-11.835
			l-0.606,1.519C133.231,106.054,135.355,113.232,137.988,118.089z"/>
	</g>
</g>
</svg>
