<?xml version="1.0" encoding="utf-8"?>
<!-- Generator: Adobe Illustrator 16.0.4, SVG Export Plug-In . SVG Version: 6.00 Build 0)  -->
<!DOCTYPE svg PUBLIC "-//W3C//DTD SVG 1.1//EN" "http://www.w3.org/Graphics/SVG/1.1/DTD/svg11.dtd">
<svg version="1.1" id="圖層_1" xmlns="http://www.w3.org/2000/svg" xmlns:xlink="http://www.w3.org/1999/xlink" x="0px" y="0px"
	 width="400px" height="400px" viewBox="0 0 400 400" enable-background="new 0 0 400 400" xml:space="preserve">
<g>
	<path fill-rule="evenodd" clip-rule="evenodd" fill="#1A2243" d="M0,0h400v400H0V0z"/>
</g>
<path fill="#FFFFFF" d="M125.795,210.03h7.373v40.735v8.683c0,4.511-3.398,7.965-7.66,7.965c-4.14,0-7.312-3.537-7.312-7.965v-8.307
	v-98.992v-8.738c0-3.194,0.646-10.64,6.068-10.591c4.478,0.018,7.578,4.118,9.021,10.348c1.525,6.521,2.459,21.545,2.459,28.178
	c0,2.232,0.824,2.995,3.283,2.995c1.57,0,5.273,0,5.273,0v-43.548h-4.312v2.066c-0.011,2.205-1.403,2.029-2.542,1.326
	c-4.08-2.625-8.706-4.682-13.172-4.631c-7.252,0.021-17.692,3.228-17.731,17.162v102.501c0.133,17.814,9.567,21.114,18.831,21.229
	c7.219,0.033,10.408-3.78,13.211-5.151c1.834-0.89,3.255,1.382,3.255,4.008h3.747V210.03h6.047v-4.422h-25.84V210.03z
	 M272.796,130.886H247.77v4.084h6.594v5.737v120.664c-0.149,2.786-1.216,3.786-5.262,3.952h-1.332v3.487h28.216v-3.487h-2.968
	c-4.731-0.177-6.478-2.106-6.561-6.207v-49.01h8.213c11.955,0,18.787-5.754,18.787-13.447v-25.796v-25.386
	C293.457,137.789,287.57,130.875,272.796,130.886z M281.43,170.035v27.232c0.017,4.295-2.752,8.258-8.069,8.219h-6.903v-35.092
	v-35.43h6.295c5.926,0,8.678,5.035,8.678,8.877V170.035z M186.815,205.679l6.594-55.531l7.479,55.531H186.815z M219.398,259.006
	v0.11l-15.936-128.259h-0.071v0.039h-12.514l-16.062,128.507c-0.879,4.102-0.939,5.124-7.146,5.45l0.021,0.884v3.057h19.776v-3.487
	c-2.564,0-4.979-0.741-6.185-1.847c-0.752-0.884-0.984-1.929-1.045-2.73l5.991-50.7h15.267l6.268,50.618
	c-0.012,3.222-0.349,4.41-4.218,4.659h-1.873v3.487h25.109v-3.487h-0.68C221.3,265.058,219.702,262.095,219.398,259.006z"/>
</svg>
