<?xml version="1.0" encoding="utf-8"?>
<!-- Generator: Adobe Illustrator 16.0.4, SVG Export Plug-In . SVG Version: 6.00 Build 0)  -->
<!DOCTYPE svg PUBLIC "-//W3C//DTD SVG 1.1//EN" "http://www.w3.org/Graphics/SVG/1.1/DTD/svg11.dtd">
<svg version="1.1" id="圖層_2" xmlns="http://www.w3.org/2000/svg" xmlns:xlink="http://www.w3.org/1999/xlink" x="0px" y="0px"
	 width="518.267px" height="505.296px" viewBox="0 0 518.267 505.296" enable-background="new 0 0 518.267 505.296"
	 xml:space="preserve">
<g>
	<path fill="#FFFFFF" d="M201.386,287.612c1.677,2.18,4.802,2.586,6.981,0.91c2.179-1.677,2.586-4.802,0.91-6.981l-41.066-53.376
		c-0.99-1.288-2.542-2.003-4.168-1.938c-1.622,0.073-3.107,0.932-3.978,2.303L9.121,465.918c-1.475,2.319-0.791,5.396,1.53,6.871
		c0.828,0.526,1.752,0.778,2.666,0.778c1.646,0,3.257-0.815,4.206-2.308l147.131-231.393L201.386,287.612z"/>
	<path fill="#FFFFFF" d="M101.276,473.566c1.268,0,2.537-0.481,3.507-1.445l100.516-99.802l50.97,51.542
		c0.936,0.946,2.209,1.479,3.54,1.479h38.431l42.949,43.75c1.926,1.961,5.077,1.99,7.04,0.064c1.961-1.926,1.99-5.078,0.064-7.04
		l-44.412-45.24c-0.936-0.954-2.216-1.49-3.552-1.49h-38.442l-53.016-53.611c-0.929-0.94-2.195-1.472-3.517-1.478
		c-1.361,0.003-2.592,0.514-3.53,1.445L97.769,465.057c-1.951,1.937-1.962,5.088-0.025,7.039
		C98.716,473.076,99.996,473.566,101.276,473.566z"/>
	<path fill="#FFFFFF" d="M513.289,495.34H4.978c-2.749,0-4.978,2.229-4.978,4.979c0,2.749,2.229,4.978,4.978,4.978h508.311
		c2.75,0,4.978-2.229,4.978-4.978C518.267,497.568,516.038,495.34,513.289,495.34z"/>
	<path fill="#FFFFFF" d="M355.55,296.576c0.002,0,0.005,0,0.008,0c1.33-0.002,2.604-0.536,3.538-1.483l26.131-26.521
		l115.715,198.541c0.925,1.586,2.592,2.472,4.305,2.472c0.851,0,1.714-0.219,2.502-0.678c2.375-1.384,3.179-4.433,1.794-6.808
		L327.859,150.374c-0.882-1.515-2.496-2.453-4.249-2.472c-1.788-0.01-3.386,0.887-4.3,2.382L208.882,330.999
		c-1.434,2.346-0.694,5.409,1.652,6.844c2.345,1.432,5.409,0.693,6.843-1.652l32.964-53.944l36.531,36.123
		c0.934,0.923,2.191,1.438,3.5,1.438c0.044,0,0.09-0.001,0.135-0.002c1.357-0.037,2.64-0.626,3.552-1.632l38.62-42.573
		l19.335,19.503C352.95,296.047,354.223,296.576,355.55,296.576z M332.409,263.392c-1.365,0.03-2.659,0.62-3.576,1.632
		l-38.655,42.612l-34.502-34.117l67.783-110.927l56.606,97.121c-0.156,0.124-0.318,0.236-0.46,0.382l-24.064,24.423l-19.485-19.654
		C335.093,263.893,333.792,263.378,332.409,263.392z"/>
	<path fill="#FFFFFF" d="M38.289,163.022c0.391,0.098,0.792,0.146,1.196,0.146h106.196c21.356,0,29.505-21.548,30.83-32.942
		c0.022-0.19,0.034-0.382,0.034-0.574c0-32.511-24.952-39.183-33.288-40.502c-9.135-13.241-18.98-16.097-25.767-16.097
		c-5.812,0-10.793,2.031-14.285,4.028c-4.301-7.623-13.898-20.139-30.55-20.139c-0.509,0-1.025,0.011-1.547,0.036
		c-12.673,0.602-22.367,7.254-28.034,19.24c-2.276,4.815-3.433,9.563-4.013,12.868c-21.042,2.505-32.015,22.855-32.015,34.087
		C7.018,148.571,27.47,160.345,38.289,163.022z M43.458,98.788c0.003,0,0.005,0,0.008,0c2.645,0,4.828-2.068,4.971-4.709
		c0.058-1.066,1.663-26.137,23.142-27.156c0.363-0.017,0.722-0.025,1.076-0.025c16.463,0,23.886,19.169,23.954,19.351
		c0.578,1.557,1.903,2.713,3.517,3.1c1.616,0.389,3.326-0.065,4.546-1.19c0.056-0.052,5.664-5.149,12.817-5.149
		c6.719,0,13.004,4.532,18.68,13.471c0.865,1.362,2.358,2.222,3.969,2.304c0.069,0.004,6.952,0.399,13.588,4.468
		c8.459,5.185,12.786,13.959,12.861,26.078c-0.373,2.578-3.979,23.885-20.906,23.885H40.168c-3.456-1.047-23.19-7.993-23.167-30.034
		C17.001,115.884,25.987,98.788,43.458,98.788z"/>
	<path fill="#FFFFFF" d="M230.129,240.512c2.33-1.46,3.036-4.531,1.577-6.861c-14.53-23.2-22.209-49.994-22.209-77.485
		c0-80.62,65.589-146.209,146.209-146.209c80.62,0,146.208,65.589,146.208,146.209c0,48.226-23.78,93.328-63.613,120.65
		c-2.267,1.555-2.844,4.653-1.289,6.92c0.964,1.407,2.523,2.163,4.109,2.163c0.971,0,1.951-0.283,2.812-0.873
		c42.54-29.18,67.937-77.352,67.937-128.86C511.87,70.056,441.815,0,355.706,0c-86.11,0-156.166,70.056-156.166,156.165
		c0,29.362,8.205,57.983,23.729,82.771C224.728,241.264,227.8,241.972,230.129,240.512z"/>
</g>
</svg>
