<?xml version="1.0" encoding="utf-8"?>
<!-- Generator: Adobe Illustrator 16.0.4, SVG Export Plug-In . SVG Version: 6.00 Build 0)  -->
<!DOCTYPE svg PUBLIC "-//W3C//DTD SVG 1.1//EN" "http://www.w3.org/Graphics/SVG/1.1/DTD/svg11.dtd">
<svg version="1.1" id="圖層_2" xmlns="http://www.w3.org/2000/svg" xmlns:xlink="http://www.w3.org/1999/xlink" x="0px" y="0px"
	 width="494.256px" height="500.206px" viewBox="0 0 494.256 500.206" enable-background="new 0 0 494.256 500.206"
	 xml:space="preserve">
<g>
	<path fill="#FFFFFF" d="M197.635,325.273c7.209,8.163,23.847,23.802,46.193,24.774c17.541,0.766,34.541-7.63,50.622-24.965
		c7.841,8.26,26.678,25.012,50.478,25.012c0.001,0,0,0,0,0c16.839,0,32.615-8.344,46.956-24.817
		c8.069,8.703,27.305,26.425,50.137,26.425c0.427,0,0.856-0.006,1.286-0.019c16.253-0.477,30.811-9.888,43.271-27.974
		c1.566-2.274,0.993-5.388-1.281-6.954c-2.275-1.566-5.388-0.993-6.954,1.28c-10.542,15.304-22.417,23.261-35.295,23.65
		c-25.119,0.804-47.094-26.943-47.31-27.22c-0.945-1.214-2.396-1.925-3.935-1.928c-0.003,0-0.006,0-0.009,0
		c-1.535,0-2.985,0.705-3.933,1.913c-13.341,16.996-27.768,25.623-42.88,25.643c-0.018,0-0.034,0-0.051,0
		c-26,0-46.337-25.392-46.536-25.643c-0.927-1.182-2.335-1.883-3.836-1.912c-1.511-0.064-2.936,0.618-3.907,1.762
		c-15.078,17.749-30.669,26.418-46.326,25.758c-24.766-1.04-42.283-25.177-42.453-25.414c-0.895-1.262-2.323-2.037-3.869-2.103
		c-1.533-0.058-3.033,0.59-4.03,1.771c-6.934,8.218-14.005,14.539-21.169,18.971V179.722h162.208
		c0.28-3.965,0.432-7.965,0.432-12.001c0-91.969-74.029-166.637-165.748-167.695c-0.584-0.142-0.955-0.216-1.056-0.234
		c-0.476-0.089-0.961-0.107-1.444-0.057c-0.135,0.015-0.767,0.088-1.809,0.295C73.834,1.281,0,75.873,0,167.721
		c0,4.036,0.151,8.036,0.432,12.001h162.371v158.479c-5.477,2.012-10.994,2.954-16.536,2.758
		c-26.117-0.888-44.917-26.117-45.1-26.366c-0.887-1.217-2.276-1.969-3.78-2.047c-1.498-0.084-2.963,0.524-3.972,1.644
		c-17.123,18.979-33.675,27.88-49.18,26.444c-20.608-1.902-33.049-21.83-33.172-22.031c-1.435-2.353-4.504-3.102-6.863-1.671
		c-2.361,1.433-3.113,4.508-1.68,6.869c0.603,0.993,15.062,24.358,40.697,26.782c17.579,1.652,35.611-6.907,53.679-25.481
		c7.449,8.333,25.244,25.009,48.958,25.85c5.72,0.197,11.374-0.54,16.95-2.193v92.438c-5.477,2.012-10.994,2.955-16.536,2.76
		c-26.117-0.888-44.917-26.117-45.1-26.366c-0.887-1.217-2.276-1.969-3.78-2.047c-1.498-0.085-2.963,0.525-3.972,1.644
		c-17.123,18.979-33.675,27.881-49.18,26.444c-20.608-1.902-33.049-21.83-33.172-22.031c-1.435-2.354-4.504-3.102-6.863-1.671
		c-2.361,1.433-3.113,4.508-1.68,6.869c0.603,0.993,15.062,24.358,40.697,26.782c17.579,1.661,35.611-6.906,53.679-25.481
		c7.449,8.333,25.244,25.009,48.958,25.85c5.72,0.194,11.374-0.545,16.95-2.199v43.458c0,2.762,2.239,5,5,5s5-2.238,5-5v-47.459
		c8.5-4.289,16.794-10.778,24.833-19.478c7.209,8.163,23.847,23.802,46.193,24.774c17.541,0.756,34.541-7.63,50.622-24.965
		c7.841,8.26,26.678,25.012,50.478,25.012c0.001,0,0,0,0,0c16.839,0,32.615-8.344,46.956-24.817
		c8.069,8.703,27.305,26.425,50.137,26.425c0.427,0,0.856-0.006,1.286-0.019c16.253-0.477,30.811-9.888,43.271-27.974
		c1.566-2.274,0.993-5.388-1.281-6.954c-2.275-1.567-5.388-0.994-6.954,1.28c-10.542,15.304-22.417,23.261-35.295,23.65
		c-25.119,0.772-47.094-26.943-47.31-27.22c-0.945-1.214-2.396-1.925-3.935-1.928c-0.003,0-0.006,0-0.009,0
		c-1.535,0-2.985,0.705-3.933,1.913c-13.341,16.996-27.768,25.623-42.88,25.643c-0.018,0-0.034,0-0.051,0
		c-26,0-46.337-25.392-46.536-25.643c-0.927-1.182-2.335-1.883-3.836-1.912c-1.511-0.059-2.936,0.618-3.907,1.762
		c-15.078,17.749-30.669,26.413-46.326,25.758c-24.766-1.04-42.283-25.177-42.453-25.414c-0.895-1.262-2.323-2.037-3.869-2.103
		c-1.533-0.055-3.033,0.59-4.03,1.771c-6.934,8.218-14.005,14.537-21.169,18.969v-91.524
		C181.303,340.465,189.597,333.972,197.635,325.273z M166.524,10.015c0.399-0.003,0.797-0.015,1.197-0.015
		c0.213,0,0.425,0.007,0.638,0.008c4.942,1.378,20.921,6.982,36.976,25.022c31.841,35.778,38.91,92.114,38.975,134.691h-74.334
		c-0.66-0.32-1.39-0.516-2.172-0.516s-1.513,0.195-2.172,0.516H91.487c2.076-44.288,10.999-102.265,40.848-136.753
		c9.493-10.968,18.763-16.717,24.868-19.607C161.374,11.386,164.653,10.445,166.524,10.015z M279.247,56.195
		c29.79,29.79,46.195,69.396,46.195,111.525c0,0.663-0.004,1.33-0.013,2.001h-71.128c-0.036-33.793-4.185-63.563-12.37-88.526
		c-6.918-21.102-16.718-38.871-29.126-52.813c-6.06-6.81-12.144-12.037-17.777-16.04C226.768,17.851,255.998,32.946,279.247,56.195z
		 M10,167.721c0-42.129,16.406-81.735,46.195-111.525c23.036-23.035,51.944-38.06,83.347-43.691
		c-4.497,3.393-9.25,7.668-14.032,13.079c-26.237,29.69-41.038,78.179-44.028,144.139H10.013C10.004,169.051,10,168.384,10,167.721z
		"/>
	<path fill="#FFFFFF" d="M434.472,122.769c32.965,0,59.785-26.819,59.785-59.785S467.437,3.198,434.472,3.198
		c-32.966,0-59.785,26.819-59.785,59.785S401.506,122.769,434.472,122.769z M434.472,13.198c27.451,0,49.785,22.334,49.785,49.785
		s-22.333,49.785-49.785,49.785c-27.452,0-49.785-22.334-49.785-49.785S407.02,13.198,434.472,13.198z"/>
</g>
</svg>
