<?xml version="1.0" encoding="utf-8"?>
<!-- Generator: Adobe Illustrator 16.0.4, SVG Export Plug-In . SVG Version: 6.00 Build 0)  -->
<!DOCTYPE svg PUBLIC "-//W3C//DTD SVG 1.1//EN" "http://www.w3.org/Graphics/SVG/1.1/DTD/svg11.dtd">
<svg version="1.1" id="圖層_1" xmlns="http://www.w3.org/2000/svg" xmlns:xlink="http://www.w3.org/1999/xlink" x="0px" y="0px"
	 width="285.022px" height="112.077px" viewBox="0 0 285.022 112.077" enable-background="new 0 0 285.022 112.077"
	 xml:space="preserve">
<g>
	<g>
		<path fill="#FFFFFF" d="M36.688,32.254c0-0.154,0-0.388,0-0.705c-0.156-1.256-0.471-2.825-0.94-4.709c1.566,0,3.137,0,4.708,0
			c2.037,0.16,3.139-0.624,3.297-2.355c0-0.31,0.077-0.781,0.235-1.412c0-0.624,0-1.096,0-1.413h-8.005
			c-0.629,4.869-2.513,9.499-5.65,13.892h44.965V48.97h5.181v5.652H23.74V48.97h5.414V35.551l-5.414-3.767
			c3.609-4.236,5.256-9.183,4.943-14.831V6.359h23.778c-0.158-0.625-0.235-1.65-0.235-3.062c-0.158-1.254-0.235-2.195-0.235-2.823
			h7.533c0,2.041,0.154,4.002,0.471,5.885h6.592c-1.099-1.883-2.041-3.297-2.824-4.238l6.592-0.942
			c1.413,1.884,2.508,3.613,3.296,5.181h5.179v5.885h-7.533l4.237,2.826c-2.824,3.767-5.731,6.906-8.711,9.414
			c0.155,0,0.235,0.084,0.235,0.237c1.254,1.57,2.432,2.355,3.531,2.355c1.097,0,1.885-0.625,2.355-1.884
			c0.312-0.625,0.706-2.121,1.176-4.473c0.155-0.628,0.235-1.022,0.235-1.179c0.471,0.156,1.256,0.471,2.354,0.942
			c0.471,0.156,1.648,0.708,3.532,1.646c-0.63,2.825-1.336,5.18-2.119,7.063c-1.101,3.143-3.454,4.709-7.062,4.709
			c-4.083,0.157-7.456-1.489-10.123-4.942c-2.671,1.883-5.887,3.61-9.652,5.177c-0.788-1.253-1.648-2.589-2.591-4.002
			c-1.099,1.26-2.982,1.884-5.649,1.884C41.786,32.177,39.669,32.254,36.688,32.254z M50.343,25.898
			c0,0.787-0.081,1.412-0.235,1.884c2.825-1.413,5.257-2.666,7.298-3.768c-1.729-3.45-3.06-7.374-4.002-11.771H36.217v4.002h14.597
			C50.813,19.542,50.655,22.762,50.343,25.898z M36.923,41.201v7.769h5.651v-7.769H36.923z M49.401,41.201v7.769h5.649v-7.769
			H49.401z M63.292,19.308c2.196-1.883,4.313-4.237,6.355-7.063h-8.945C61.485,15.07,62.35,17.425,63.292,19.308z M67.528,41.201
			h-5.649v7.769h5.649V41.201z"/>
		<path fill="#FFFFFF" d="M136.272,56.506c-5.338-3.768-9.104-6.747-11.3-8.949c-2.824,2.669-6.986,5.886-12.477,9.653
			c-0.471-0.941-1.413-2.354-2.826-4.239c-0.629-0.941-1.101-1.646-1.413-2.116c-0.786,2.508-2.905,3.844-6.355,4.001
			c-1.258,0.153-3.532,0.237-6.827,0.237c-0.158-0.789-0.471-2.354-0.941-4.71c-0.158-0.941-0.317-1.646-0.471-2.118
			c1.254,0.157,2.824,0.234,4.707,0.234c2.354,0.157,3.451-1.019,3.297-3.53c0.471-4.863,0.707-9.807,0.707-14.833h-6.121
			c-0.159,11.299-2.672,20.247-7.534,26.84c-2.671-2.672-4.474-4.633-5.415-5.888c3.922-5.491,5.886-13.808,5.886-24.952l0.235-9.89
			h-5.18V9.186h11.066c-0.159-1.257-0.63-3.14-1.413-5.651C93.58,2.438,93.345,1.65,93.19,1.179l8.24-0.941
			c0.942,3.143,1.648,6.122,2.119,8.948h8.004v7.061H96.722c0,2.515,0,4.789,0,6.826h12.242c4.238-6.59,7.376-14.201,9.417-22.835
			l8.004,0.941c-0.786,2.672-1.648,5.414-2.588,8.24h16.714v7.298h-3.531c-1.1,10.674-3.531,18.918-7.299,24.718
			c3.139,3.144,6.904,5.812,11.301,8.007C139.252,51.639,137.686,53.99,136.272,56.506z M112.73,30.844
			c-0.158-0.313-0.471-0.784-0.941-1.412c-0.317-0.471-1.101-1.649-2.354-3.533c0,6.749-0.158,13.89-0.471,21.425
			c0,0.314-0.08,0.785-0.235,1.414c0,0.47,0,0.784,0,0.941c5.181-2.983,9.022-5.806,11.536-8.478
			c-2.354-3.921-4.083-8.554-5.179-13.891L112.73,30.844z M124.973,34.608c2.51-3.921,4.079-9.887,4.708-17.892H120.5l-0.471,1.178
			C121.283,25.273,122.931,30.844,124.973,34.608z"/>
		<path fill="#FFFFFF" d="M145.219,8.243V2.591h55.089v5.652h-26.132l-0.942,2.589h22.129v24.247h-27.779
			c-0.942,0.788-1.729,1.649-2.354,2.592h29.427v5.648c-2.982,2.354-6.12,4.318-9.417,5.888c1.884,0.156,4.944,0.391,9.183,0.706
			c2.824,0,5.021,0.075,6.592,0.232c-0.629,1.256-1.413,2.982-2.354,5.181c-0.315,0.471-0.471,0.784-0.471,0.942
			c-9.888-0.942-17.738-2.198-23.542-3.768c-6.122,1.884-14.913,3.449-26.368,4.709c-0.628-1.884-1.57-3.924-2.824-6.122
			c6.12-0.313,12.555-0.862,19.305-1.646c-2.201-1.096-4.789-2.746-7.771-4.943c-2.353,1.883-5.179,3.61-8.475,5.181
			c-0.315-0.315-0.863-1.022-1.646-2.122c-1.102-1.413-1.966-2.508-2.591-3.296c6.12-2.508,10.907-5.568,14.36-9.182h-7.769V10.832
			h13.654l0.943-2.589H145.219z M158.637,15.304v2.825h28.958v-2.825H158.637z M158.637,21.659v2.593h28.958v-2.593H158.637z
			 M158.637,27.782v2.825h28.958v-2.825H158.637z M184.299,42.848h-19.304c2.822,1.73,6.038,3.063,9.651,4.005
			C178.097,45.597,181.315,44.261,184.299,42.848z"/>
		<path fill="#FFFFFF" d="M208.312,11.069V3.534h48.732v7.535h-20.246c0,3.765-0.08,7.378-0.235,10.827h23.778v7.535h-22.837
			c2.826,9.571,10.749,15.854,23.778,18.833c-0.629,1.099-1.647,2.665-3.061,4.706c-0.787,1.414-1.335,2.433-1.648,3.063
			c-12.712-4.085-20.718-10.438-24.012-19.071c-2.671,8.006-10.44,14.596-23.309,19.775c-1.728-2.668-3.376-5.022-4.943-7.06
			c13.654-4.863,21.266-11.614,22.836-20.247h-22.129v-7.535h22.835c0.155-1.096,0.235-2.902,0.235-5.414
			c0.155-2.355,0.236-4.159,0.236-5.413H208.312z"/>
	</g>
	<g>
		<path fill="#FFFFFF" d="M1.575,85.501V72.756h11.456v12.745h-2.864v4.01h3.293v4.009h-3.293v5.298
			c0.38-0.094,0.906-0.19,1.575-0.286c0.763-0.19,1.289-0.287,1.575-0.287c0,2.102,0.046,3.483,0.143,4.153
			c-4.582,0.667-8.877,1.432-12.887,2.291L0,100.249c0.19,0,0.43-0.047,0.716-0.144c0.287,0,0.477,0,0.573,0V87.649h3.294v12.027
			l1.86-0.286v-13.89H1.575z M5.728,76.623v4.868h3.724v-4.868H5.728z M32.647,104.974c-3.915-1.909-6.587-3.959-8.019-6.156
			c0,1.432,0,2.722,0,3.866c-1.718,0.477-3.629,1.096-5.727,1.861c-1.146,0.38-2.102,0.81-2.865,1.289l-2.147-3.58
			c0.859-0.573,1.239-1.575,1.146-3.007V73.043h17.612v18.186h-0.715l2.577,3.294c-0.383,0.192-0.908,0.524-1.575,1.002
			c-1.528,0.956-2.721,1.671-3.58,2.147c1.432,1.241,3.341,2.387,5.728,3.437L32.647,104.974z M19.331,77.195v3.007h9.021v-3.007
			H19.331z M19.331,87.075h9.021v-3.007h-9.021V87.075z M19.331,100.249l5.012-1.718c-1.241-2.005-2.291-4.439-3.15-7.303h-1.861
			V100.249z M25.488,91.229c0.38,1.433,0.906,2.627,1.575,3.579c1.718-1.145,3.34-2.337,4.869-3.579H25.488z"/>
		<path fill="#FFFFFF" d="M36.944,77.339v-3.723h8.447v-2.148h4.582v2.148h8.162v-2.148h4.582v2.148h8.592v3.723h-8.592v1.719
			h-4.582v-1.719h-8.162v1.289h4.583v1.718h7.589v2.72c1.719-1.048,3.437-2.24,5.155-3.579l2.863,2.864
			c-1.814,1.241-3.58,2.387-5.298,3.437h6.443v3.58H58.709c-0.479,0.286-1.289,0.668-2.435,1.146
			c-0.766,0.383-1.338,0.669-1.718,0.858h13.03v14.319h-4.726v-1.288H47.396v1.288h-4.726v-9.45
			c-1.527,0.572-3.104,1.099-4.725,1.575c-0.097-0.19-0.193-0.524-0.287-1.003c-0.192-0.666-0.573-1.719-1.145-3.149
			c5.058-1.146,9.641-2.578,13.746-4.296H37.086v-3.58h12.745V83.64h-9.308v-3.294h9.308v-1.288h-4.439v-1.719H36.944z
			 M47.396,94.666v2.003h15.465v-2.003H47.396z M47.396,99.391v2.005h15.465v-2.005H47.396z M57.42,85.787
			c1.336-0.573,2.578-1.289,3.723-2.147h-6.586v2.147H57.42z"/>
		<path fill="#FFFFFF" d="M104.683,85.653v11.761c-2.139,4.479-6.873,6.721-14.204,6.721c-9.98-0.511-15.225-5.957-15.732-16.343
			c0.508-10.487,5.6-15.985,15.274-16.496c7.229,0,12.065,2.803,14.51,8.4l-5.651,1.985c-1.527-3.46-4.482-5.192-8.858-5.192
			c-5.499,0.511-8.453,4.276-8.859,11.303c0.306,7.129,3.46,10.896,9.47,11.303c4.174,0,7.026-1.17,8.554-3.515v-5.039h-9.929
			v-4.888H104.683z"/>
		<path fill="#FFFFFF" d="M133.245,103.522h-5.651c-0.611-0.915-0.969-2.137-1.069-3.664c-2.038,2.646-5.346,4.021-9.928,4.123
			c-4.686-0.205-7.129-2.29-7.332-6.262c0-4.174,2.8-6.618,8.401-7.332c4.377-0.814,7.229-1.576,8.553-2.29
			c0.306-2.647-1.374-3.87-5.04-3.666c-3.055,0-4.94,1.121-5.651,3.36l-5.499-0.764c1.12-4.583,4.835-6.821,11.15-6.721
			c7.534-0.203,11.15,2.901,10.845,9.316c0,2.444,0,5.498,0,9.165C132.023,100.622,132.429,102.199,133.245,103.522z
			 M126.678,93.443v-1.986c-1.528,1.02-3.666,1.733-6.415,2.139c-3.565,0.511-5.346,1.783-5.346,3.818
			c-0.104,1.833,1.321,2.7,4.275,2.597C123.775,99.706,126.27,97.517,126.678,93.443z"/>
		<path fill="#FFFFFF" d="M143.173,100.774v11.303h-5.957V80.766h5.957v3.666c1.527-2.646,4.071-4.021,7.637-4.124
			c5.804,0.306,8.859,4.176,9.164,11.608c0,8.147-3.26,12.166-9.775,12.065C147.041,103.879,144.7,102.81,143.173,100.774z
			 M143.02,91.305v2.139c0.101,3.971,1.884,6.059,5.347,6.263c3.766,0,5.651-2.598,5.651-7.79c-0.104-4.582-1.936-6.924-5.499-7.026
			C144.953,84.992,143.12,87.131,143.02,91.305z"/>
		<path fill="#FFFFFF" d="M192.011,105.69l-2.147-2.577c-5.538,0.189-11.219,0.43-17.04,0.716c-1.718,0.094-3.58,0.334-5.584,0.716
			l-2.292-4.439c1.239-0.666,2.625-1.765,4.153-3.293c1.621-1.622,3.244-3.437,4.868-5.441h-11.312v-4.582h14.748v-5.441h-12.458
			v-4.438h12.458v-5.441h5.154v5.441h12.315v4.438H182.56v5.441h14.606v4.582h-16.61c-2.577,2.864-5.155,5.584-7.732,8.163
			c2.291,0,6.777-0.095,13.46-0.287c-0.383-0.573-1.052-1.432-2.005-2.578c-0.669-0.666-1.146-1.191-1.432-1.575l3.723-2.433
			c1.239,1.337,3.101,3.292,5.585,5.87c1.908,2.005,3.293,3.436,4.152,4.296L192.011,105.69z"/>
		<path fill="#FFFFFF" d="M199.743,80.775v-4.296h5.441l-1.433-4.438l4.726-0.717l1.289,5.155h4.01v2.863
			c1.908-2.384,3.293-5.059,4.152-8.019l5.012,0.144c-0.192,0.573-0.479,1.338-0.859,2.291c-0.192,0.479-0.336,0.859-0.429,1.146
			h12.027v3.866h-14.176c-0.766,1.432-1.672,2.816-2.722,4.152c5.633-0.572,10.404-1.288,14.319-2.147l1.576,4.151
			c-2.197,0.479-4.345,0.86-6.444,1.146c0.19,1.625,0.43,3.007,0.716,4.152c1.526-0.762,3.15-1.622,4.869-2.576l2.147,3.722
			c-2.005,0.956-3.915,1.861-5.728,2.721c1.146,2.673,3.101,5.108,5.871,7.304c-0.383,0.285-1.003,0.858-1.861,1.718
			c-0.859,0.858-1.481,1.432-1.861,1.719c-4.775-4.2-7.543-10.31-8.306-18.329c-0.669,0.192-1.385,0.286-2.148,0.286v12.888
			c0.764-0.381,2.292-1.05,4.583-2.005l0.286,4.152c-0.192,0.094-0.479,0.237-0.859,0.43c-1.624,0.573-3.149,1.192-4.582,1.861
			c-1.338,0.667-2.244,1.146-2.721,1.432l-2.577-3.437c1.049-0.858,1.525-1.955,1.432-3.293V84.498h-0.144
			c0,0.096-0.049,0.144-0.143,0.144c-1.052-1.146-2.147-2.242-3.294-3.294l0.573-0.572h-6.301v3.866h6.874
			c0,3.436-0.097,8.688-0.287,15.751c0,2.863-1.385,4.343-4.152,4.439c-1.052,0-2.148,0-3.293,0l-1.003-3.724
			c-0.096,0.287-0.239,0.666-0.43,1.146c-0.192,0.667-0.716,1.861-1.575,3.58c-0.192-0.193-0.429-0.384-0.716-0.573
			c-1.146-1.051-2.005-1.861-2.577-2.434c1.908-3.055,2.864-8.112,2.864-15.178l0.143-6.874H199.743z M208.907,88.794h-2.863
			c-0.287,5.348-0.859,9.403-1.719,12.171c0.859,0,1.719,0,2.578,0c1.239,0.097,1.861-0.523,1.861-1.861
			c0-1.146,0.047-2.863,0.143-5.155C208.907,91.563,208.907,89.846,208.907,88.794z"/>
		<path fill="#FFFFFF" d="M237.26,96.097c-0.192-0.667-0.479-1.621-0.859-2.864c-0.286-0.762-0.479-1.336-0.572-1.718
			c3.053-2.671,6.157-6.157,9.307-10.454l3.867,2.864c-0.193,0.192-0.43,0.479-0.717,0.859c-0.766,0.956-1.718,2.102-2.863,3.437
			v17.47h-4.726V93.089c-0.573,0.67-1.624,1.577-3.15,2.722C237.64,95.811,237.546,95.906,237.26,96.097z M238.262,84.212
			c-0.956-2.385-1.624-3.961-2.005-4.726c3.15-2.291,5.965-5.012,8.448-8.162l4.01,2.864
			C245.278,78.104,241.792,81.443,238.262,84.212z M249.574,88.794v-4.726h20.905v4.726h-5.297v10.453
			c0.189,3.817-1.625,5.727-5.442,5.727c-2.577,0.095-4.774,0.144-6.586,0.144c-0.097-0.764-0.287-1.861-0.573-3.293
			c-0.097-0.476-0.193-0.859-0.286-1.146c0.477,0,1.288,0,2.434,0c1.336,0.096,2.291,0.144,2.864,0.144
			c1.908,0.096,2.814-0.764,2.721-2.578v-9.45H249.574z M251.006,78.055v-4.582h18.042v4.582H251.006z"/>
		<path fill="#FFFFFF" d="M279.438,74.475h5.584l-0.858,21.766h-4.01L279.438,74.475z M279.725,98.96h5.012v5.155h-5.012V98.96z"/>
	</g>
</g>
</svg>
