<?xml version="1.0" encoding="utf-8"?>
<!-- Generator: Adobe Illustrator 16.0.4, SVG Export Plug-In . SVG Version: 6.00 Build 0)  -->
<!DOCTYPE svg PUBLIC "-//W3C//DTD SVG 1.1//EN" "http://www.w3.org/Graphics/SVG/1.1/DTD/svg11.dtd">
<svg version="1.1" id="圖層_1" xmlns="http://www.w3.org/2000/svg" xmlns:xlink="http://www.w3.org/1999/xlink" x="0px" y="0px"
	 width="156.533px" height="155.163px" viewBox="0 0 156.533 155.163" enable-background="new 0 0 156.533 155.163"
	 xml:space="preserve">
<g>
	<g>
		<path fill="#FFFFFF" d="M1.662,66.312l-1.24-0.93c2.683-2.479,5.781-7.229,9.296-14.254l1.549,0.619
			C8.373,57.741,5.172,62.593,1.662,66.312z M2.592,46.48l-1.549-0.62c0.62-1.859,1.341-3.82,2.169-5.887
			c0.62-2.48,1.239-4.543,1.859-6.199l1.24,0.311c-0.417,1.859-0.93,3.926-1.55,6.197C3.933,42.559,3.211,44.62,2.592,46.48z
			 M7.55,22.931c1.65-1.651,2.992-2.992,4.028-4.029c1.031-1.239,1.961-2.271,2.789-3.1c-1.24,0-2.896,0-4.958,0
			c-3.307,0.21-5.476,0.311-6.507,0.311l-1.239,0.311c-0.208-0.621-0.31-1.239-0.31-1.859h0.93c1.442-1.441,3.408-3.719,5.887-6.816
			c2.479-3.099,4.231-5.68,5.268-7.747l1.549,0.929c-1.239,1.86-2.895,4.135-4.958,6.818C8.992,8.986,7.55,10.743,5.69,13.015
			c-0.62,0.828-1.036,1.347-1.24,1.549c1.859,0,3.922,0,6.198,0c2.062-0.202,3.718-0.309,4.958-0.309
			c1.859-2.271,3.409-4.131,4.648-5.578l1.239,0.619c-1.447,2.067-3.926,5.166-7.436,9.297c-1.448,1.447-3.308,3.306-5.578,5.576
			C7.032,25.825,6,26.958,5.38,27.578l8.986-0.62c2.479,0,4.231,0,5.268,0l-3.099-5.887l1.239-0.931l5.888,10.846l-1.549,0.62
			l-1.859-3.408l-7.438,0.619c-2.067,0-4.337,0.106-6.816,0.311c-1.036,0-1.758,0-2.169,0l-1.859,0.311l-0.31-1.24l1.239-0.62
			C3.724,26.958,5.274,25.409,7.55,22.931z M11.578,34.396l1.549-0.311l0.62,5.889l0.62,5.576h-1.55l-0.619-5.576L11.578,34.396z
			 M19.015,33.774l1.239-0.618l2.169,5.268c0.203,0.62,0.513,1.447,0.929,2.479c0.412,1.239,0.722,2.067,0.93,2.479l-1.549,0.619
			l-1.859-4.957L19.015,33.774z M19.324,50.508h1.549v11.774c-0.208,4.338,2.891,6.402,9.296,6.198h12.395
			c4.338,0,7.229-0.416,8.676-1.239c1.239-0.828,2.062-1.965,2.479-3.408c0.204-1.032,0.412-2.479,0.62-4.338
			c0.203-1.031,0.31-1.754,0.31-2.17h1.549c-0.208,1.859-0.518,4.135-0.929,6.817c-0.417,4.13-4.648,6.091-12.705,5.888H30.17
			c-2.688,0.203-5.166-0.311-7.437-1.55c-2.276-0.828-3.409-2.896-3.409-6.198V50.508z M34.818,0.62L36.057,0l2.789,7.747h9.606
			v1.549h-22.93V7.747h11.775L34.818,0.62z M28,15.494h17.663v1.548H28V15.494z M28,23.55h17.663v1.551H28V23.55z M28,30.986h17.663
			v13.325H28V30.986z M44.113,32.536H29.55v10.227h14.563V32.536z M32.029,48.339l0.93-1.238l10.226,10.225l-0.93,1.239
			L32.029,48.339z M60.537,18.282c0.204-0.412,0.513-0.822,0.93-1.24c0.411-0.619,0.721-1.03,0.929-1.24c-0.208,0-0.726,0-1.549,0
			c-1.239,0.21-2.275,0.311-3.098,0.311c-3.099,0-5.268,0-6.507,0l-1.549,0.311l-0.31-1.859h1.239
			c1.443-1.441,3.409-3.719,5.888-6.816C58.987,4.648,60.74,2.067,61.776,0l1.239,0.929c-0.828,1.86-2.377,4.135-4.648,6.818
			c-0.828,1.036-2.067,2.585-3.718,4.647c-0.828,1.036-1.448,1.759-1.859,2.169c1.443,0,3.408,0,5.887,0
			c2.063-0.202,3.82-0.309,5.268-0.309c2.271-2.684,4.028-4.959,5.268-6.818l1.549,0.93c-0.416,0.417-0.929,1.035-1.549,1.859
			c-0.62,0.828-2.788,3.307-6.507,7.437c-3.718,4.136-6.817,7.438-9.295,9.916l8.985-0.62c2.479,0,4.338,0,5.578,0l-3.409-5.887
			l1.55-0.931l5.887,10.846l-1.549,0.62l-1.859-3.408c-0.417,0.207-1.656,0.31-3.718,0.31c-1.448,0.208-2.688,0.31-3.719,0.31
			c-2.067,0-4.338,0.106-6.817,0.311c-1.036,0-1.757,0-2.169,0l-1.859,0.311l-0.31-1.24l1.24-0.62
			C53.1,25.927,56.198,22.827,60.537,18.282z M50.931,46.48l-1.549-0.62l2.169-5.887c0.203-0.621,0.411-1.443,0.619-2.48
			c0.204-0.822,0.514-2.062,0.93-3.719l1.549,0.311l-1.859,6.197C52.17,42.559,51.551,44.62,50.931,46.48z M59.917,34.396
			l1.549-0.311c0.203,0.621,0.31,1.656,0.31,3.099c0.203,1.036,0.31,1.966,0.31,2.79l0.62,5.887h-1.549l-0.62-5.578L59.917,34.396z
			 M60.846,51.747l1.24-1.239l5.578,6.817c0.62,0.621,1.443,1.55,2.479,2.788c0.412,0.62,1.549,1.967,3.408,4.029l-1.239,0.62
			c-0.828-0.62-1.966-1.859-3.409-3.719c-1.036-1.239-1.859-2.169-2.478-2.789c-0.828-1.031-2.068-2.479-3.719-4.338
			C61.877,52.886,61.258,52.164,60.846,51.747z M67.354,33.774l1.24-0.618l2.479,6.196l1.859,5.578l-1.239,0.619l-2.169-5.887
			c-0.208-0.823-0.518-1.753-0.93-2.789C67.974,35.431,67.557,34.396,67.354,33.774z"/>
		<path fill="#FFFFFF" d="M86.193,5.268h68.48v1.55h-34.705c-0.207,0.619-0.726,1.859-1.549,3.718
			c-0.828,1.859-1.447,3.205-1.859,4.028h31.607v28.199h-39.354c-0.827,1.035-2.376,2.687-4.647,4.957
			c-0.828,0.828-1.447,1.447-1.859,1.859h44.002v1.549c-6.198,5.166-13.432,9.296-21.691,12.395
			c8.26,2.062,18.902,4.029,31.916,5.888l-0.309,1.55c-13.844-2.068-25.207-4.34-34.086-6.817
			c-7.646,2.271-20.35,4.958-38.114,8.056l-0.31-1.549c15.077-2.479,27.061-4.855,35.944-7.127
			c-8.884-3.099-15.804-6.816-20.761-11.154c-4.135,3.514-8.884,6.715-14.254,9.605l-0.62-1.24
			c9.296-5.16,16.936-11.154,22.93-17.971H94.87V14.563h19.831c0.62-0.823,1.443-2.371,2.479-4.647
			c0.621-1.443,1.032-2.479,1.24-3.099H86.193V5.268z M146.618,16.112H96.109v7.438h50.509V16.112z M96.109,25.101v7.125h50.509
			v-7.125H96.109z M96.109,41.213h50.509v-7.438H96.109V41.213z M100.138,51.438c5.37,4.545,12.704,8.366,22,11.465
			c9.088-3.303,16.316-7.229,21.689-11.775h-43.071C100.549,51.128,100.341,51.234,100.138,51.438z"/>
	</g>
	<g>
		<path fill="#FFFFFF" d="M0.422,154.229v-71.91h31.442v30.196h-21.48v41.714H0.422z M10.384,89.792v4.668h11.519v-4.668H10.384z
			 M10.384,105.356h11.519v-4.671H10.384V105.356z M17.855,143.646c-0.418-0.623-1.143-1.658-2.18-3.113
			c-1.663-2.072-2.801-3.629-3.424-4.67c8.92-4.357,14.213-9.129,15.876-14.318c1.036-2.072,1.761-4.46,2.179-7.16h9.65
			c-0.418,2.49-0.934,4.463-1.557,5.914c8.507,6.227,14.734,10.895,18.678,14.008l-6.226,7.783
			c-3.114-2.904-8.406-7.473-15.877-13.697C32.068,133.995,26.362,139.083,17.855,143.646z M46.495,153.919
			c0-0.418-0.209-1.041-0.623-1.869c-0.832-3.734-1.454-6.123-1.868-7.158c4.149,0.207,7.573,0.311,10.273,0.311
			c3.735,0.209,5.497-1.557,5.292-5.291v-27.396h-21.48V82.319h31.442v59.77c0.204,7.264-3.425,11.1-10.896,11.518
			C54.9,153.81,50.854,153.919,46.495,153.919z M47.74,89.792v4.668h11.83v-4.668H47.74z M47.74,100.686v4.671h11.83v-4.671H47.74z"
			/>
		<path fill="#FFFFFF" d="M80.987,119.677v-8.718h9.961V80.452h8.716V103.8c2.072-6.227,3.629-11.519,4.67-15.876l5.914,1.556
			c-1.245,4.567-3.113,10.273-5.604,17.121l-4.98-1.557v5.915h9.339v8.718h-4.979v19.922l4.979-3.736
			c0.414,4.568,0.726,7.68,0.936,9.34c-0.21,0-0.419,0.107-0.624,0.311c-3.322,1.658-5.71,3.215-7.16,4.67
			c-0.621,0.414-1.352,1.139-2.179,2.178c-0.418,0.414-0.73,0.727-0.934,0.938l-4.358-6.539c1.45-1.041,2.072-2.904,1.868-5.604
			v-21.479h-3.424v1.242c0,8.305-0.521,14.74-1.557,19.301c-1.041,4.359-3.22,9.34-6.538,14.943
			c-1.663-2.699-3.321-5.189-4.981-7.471c4.15-6.227,6.018-15.045,5.604-26.461v-1.555H80.987z M85.033,106.911
			c-1.246-5.602-2.699-11.409-4.357-17.432l5.603-1.556c0.204,0.417,0.414,1.143,0.623,2.179c1.659,6.227,2.904,11.207,3.736,14.941
			L85.033,106.911z M109.314,133.995c-0.209-2.283-0.934-5.393-2.18-9.34c4.982-4.562,8.508-9.543,10.584-14.941l9.029,1.245
			l-2.18,4.047h8.405l-1.557-4.047l8.405-0.933l1.867,4.979h13.074v6.538h-13.697v4.047h12.453v5.914h-12.453v4.047h12.453v5.914
			h-12.453v4.047h14.943v6.225h-34.244v2.803h-8.715v-23.969L109.314,133.995z M110.56,110.959l-1.557-7.159
			c5.604-1.659,10.272-3.006,14.01-4.047v-9.65h-12.765v-7.16h20.547v26.461h-7.782v-2.803c-1.456,0.419-3.532,1.145-6.228,2.18
			C114.087,109.612,112.01,110.337,110.56,110.959z M116.785,100.686c-0.621-0.826-1.664-1.866-3.112-3.112
			c-1.454-1.449-2.597-2.49-3.425-3.113l4.67-3.736c0.414,0.42,1.138,1.042,2.18,1.869c0.826,0.622,2.383,1.975,4.668,4.047
			L116.785,100.686z M121.766,121.544v4.047h10.585v-4.047H121.766z M121.766,131.505v4.047h10.585v-4.047H121.766z
			 M121.766,141.466v4.047h10.585v-4.047H121.766z M134.219,109.714l-2.18-6.848c2.072-0.624,4.981-1.557,8.717-2.803
			c2.281-0.622,4.047-1.139,5.292-1.555v-8.406h-12.763v-7.16h20.545v28.329h-7.782v-5.915
			C142.727,106.601,138.781,108.055,134.219,109.714z M139.199,100.376c-2.699-2.696-4.879-4.772-6.537-6.227l4.358-3.736
			c2.489,1.868,4.772,3.736,6.849,5.604L139.199,100.376z"/>
	</g>
</g>
</svg>
